HIERARCHY
ROOT Pelvis
{
	OFFSET 0.000000 0.000000 0.000000
	CHANNELS 6 Xposition Yposition Zposition Xrotation Yrotation Zrotation
	JOINT LeftUpLeg_virtual
	{
		OFFSET 0.000000 0.000000 0.000000
		CHANNELS 3 Xrotation Yrotation Zrotation
		JOINT LeftUpLeg
		{
			OFFSET 8.479700 -4.795502 -0.379100
			CHANNELS 3 Xrotation Yrotation Zrotation
			JOINT LeftLeg
			{
				OFFSET 0.024144 -32.555107 0.112900
				CHANNELS 3 Xrotation Yrotation Zrotation
				JOINT LeftFoot
				{
					OFFSET -0.024144 -32.638630 -3.012600
					CHANNELS 3 Xrotation Yrotation Zrotation
					JOINT LeftToeBase
					{
						OFFSET 0.970200 -13.225400 11.864200
						CHANNELS 3 Xrotation Yrotation Zrotation
						End Site
						{
							OFFSET 0 0 0
						}
					}
				}
			}
		}
	}
	JOINT RightUpLeg_virtual
	{
		OFFSET 0.000000 0.000000 0.000000
		CHANNELS 3 Xrotation Yrotation Zrotation
		JOINT RightUpLeg
		{
			OFFSET -8.479700 -4.795502 -0.379100
			CHANNELS 3 Xrotation Yrotation Zrotation
			JOINT RightLeg
			{
				OFFSET -0.023144 -32.555092 0.112900
				CHANNELS 3 Xrotation Yrotation Zrotation
				JOINT RightFoot
				{
					OFFSET 0.023144 -32.638641 -3.012700
					CHANNELS 3 Xrotation Yrotation Zrotation
					JOINT RightToeBase
					{
						OFFSET -0.970200 -13.225400 11.864200
						CHANNELS 3 Xrotation Yrotation Zrotation
						End Site
						{
							OFFSET 0 0 0
						}
					}
				}
			}
		}
	}
	JOINT Hips_virtual
	{
		OFFSET 0.000000 0.000000 0.000000
		CHANNELS 3 Xrotation Yrotation Zrotation
		JOINT Hips
		{
			OFFSET -0.000000 -0.000000 -0.000000
			CHANNELS 3 Xrotation Yrotation Zrotation
			JOINT Spine
			{
				OFFSET 0.000000 7.722000 1.166200
				CHANNELS 3 Xrotation Yrotation Zrotation
				JOINT Spine1
				{
					OFFSET 0.000000 12.024101 0.248800
					CHANNELS 3 Xrotation Yrotation Zrotation
					JOINT Spine2
					{
						OFFSET 0.000000 11.502998 -0.491200
						CHANNELS 3 Xrotation Yrotation Zrotation
						JOINT Neck_virtual
						{
							OFFSET 0.000000 0.000000 0.000000
							CHANNELS 3 Xrotation Yrotation Zrotation
							JOINT Neck
							{
								OFFSET 0.000000 18.430702 -3.123100
								CHANNELS 3 Xrotation Yrotation Zrotation
								JOINT Head
								{
									OFFSET 0.000000 9.051102 1.034000
									CHANNELS 3 Xrotation Yrotation Zrotation
									End Site
									{
										OFFSET 0 0 0
									}
								}
							}
						}
						JOINT LeftShoulder_virtual
						{
							OFFSET 0.000000 0.000000 0.000000
							CHANNELS 3 Xrotation Yrotation Zrotation
							JOINT LeftShoulder
							{
								OFFSET 6.197800 13.665199 -4.064700
								CHANNELS 3 Xrotation Yrotation Zrotation
								JOINT LeftArm
								{
									OFFSET 7.778100 -0.187103 -1.709300
									CHANNELS 3 Xrotation Yrotation Zrotation
									JOINT LeftForeArm
									{
										OFFSET 22.049376 0.000000 0.000000
										CHANNELS 3 Xrotation Yrotation Zrotation
										JOINT LeftHand
										{
											OFFSET 23.009392 0.000000 0.000000
											CHANNELS 3 Xrotation Yrotation Zrotation
											End Site
											{
												OFFSET 0 0 0
											}
										}
									}
								}
							}
						}
						JOINT RightShoulder_virtual
						{
							OFFSET 0.000000 0.000000 0.000000
							CHANNELS 3 Xrotation Yrotation Zrotation
							JOINT RightShoulder
							{
								OFFSET -6.197800 13.665199 -4.064700
								CHANNELS 3 Xrotation Yrotation Zrotation
								JOINT RightArm
								{
									OFFSET -7.778100 -0.187103 -1.709300
									CHANNELS 3 Xrotation Yrotation Zrotation
									JOINT RightForeArm
									{
										OFFSET -22.049376 0.000000 0.000000
										CHANNELS 3 Xrotation Yrotation Zrotation
										JOINT RightHand
										{
											OFFSET -23.009392 0.000000 0.000000
											CHANNELS 3 Xrotation Yrotation Zrotation
											End Site
											{
												OFFSET 0 0 0
											}
										}
									}
								}
							}
						}
					}
				}
			}
		}
	}
}
MOTION
Frames: 8
Frame Time: 0.03333333
-1.141756 77.058769 0.158167 0.000000 0.000000 0.000000 -5.665206 -42.472927 -2.587571 -26.882375 4.792060 11.707924 34.765820 -12.359330 2.142420 -5.787463 0.645564 -10.001344 0.000000 0.000000 0.000000 -5.665206 -42.472927 -2.587571 -2.207370 -14.721768 -16.077739 31.814287 18.999307 -4.412124 -27.942920 -1.559724 4.988988 0.000000 0.000000 0.000000 -5.665206 -42.472927 -2.587571 0.000001 0.000002 -0.000000 5.901720 0.558272 -0.162124 11.805243 0.991270 -0.356038 0.000000 0.000000 0.000000 11.805237 0.991257 -0.356034 5.454856 -28.042001 -1.570749 0.000000 0.000000 0.000000 11.805237 0.991257 -0.356034 0.953427 -3.294074 -6.337549 -7.803585 10.695479 -60.595710 -1.858030 -56.426358 -5.060455 0.000000 0.000000 0.000000 11.805237 0.991257 -0.356034 1.781022 9.143859 7.041889 5.733452 -24.152580 68.587646 -7.143940 60.700253 7.121715 0.000000 0.000000 0.000000 
-1.160769 77.125671 0.156527 0.000000 0.000000 0.000000 -5.752708 -44.383843 -2.726591 -26.311941 5.166565 12.263787 34.491762 -11.071291 1.990089 -5.939361 0.699113 -10.349874 0.000000 0.000000 0.000000 -5.752708 -44.383843 -2.726591 -3.153601 -14.565541 -16.325131 32.158102 19.594882 -4.734932 -27.581830 -1.522011 5.183417 0.000000 0.000000 0.000000 -5.752708 -44.383843 -2.726591 0.000000 -0.000002 0.000000 5.947508 0.290612 -0.117984 11.895483 0.464792 -0.236211 0.000000 0.000000 0.000000 11.895480 0.464806 -0.236212 5.195391 -27.982389 -1.762660 0.000000 0.000000 0.000000 11.895480 0.464806 -0.236212 0.886141 -3.734529 -6.257958 -7.277734 11.319154 -60.862340 -1.912518 -56.844085 -5.070193 0.000000 0.000000 0.000000 11.895480 0.464806 -0.236212 1.849866 8.523538 7.171788 5.962391 -24.111215 68.527015 -7.077266 61.206343 7.218189 0.000000 0.000000 0.000000 
-1.185390 77.192902 0.150198 0.000000 0.000000 0.000000 -5.877458 -46.301726 -2.875483 -25.694181 5.565754 12.790038 34.194563 -9.775700 1.833023 -6.077524 0.753573 -10.705508 0.000000 0.000000 0.000000 -5.877458 -46.301726 -2.875483 -4.083838 -14.367955 -16.529795 32.524049 20.074626 -5.080785 -27.215840 -1.488497 5.393351 0.000000 0.000000 0.000000 -5.877458 -46.301726 -2.875483 0.000000 0.000001 0.000000 5.994653 0.018516 -0.077514 11.989272 -0.070029 -0.121167 0.000000 0.000000 0.000000 11.989276 -0.070039 -0.121165 4.858848 -27.854879 -2.018469 0.000000 0.000000 0.000000 11.989276 -0.070039 -0.121165 0.810236 -4.308836 -6.381128 -6.676103 12.150739 -60.876718 -2.277402 -57.498677 -5.268928 0.000000 0.000000 0.000000 11.989276 -0.070039 -0.121165 1.951317 7.799977 7.121224 6.182265 -23.943582 68.623819 -6.650499 61.549212 7.002533 0.000000 0.000000 0.000000 
-1.209455 77.254669 0.147085 0.000000 0.000000 0.000000 -6.031078 -48.256069 -3.043749 -25.042378 5.948568 13.279443 33.912395 -8.411093 1.690476 -6.217267 0.812218 -11.090829 0.000000 0.000000 0.000000 -6.031078 -48.256069 -3.043749 -5.032328 -14.154489 -16.718473 32.918302 20.548061 -5.433798 -26.829458 -1.463004 5.630280 0.000000 0.000000 0.000000 -6.031078 -48.256069 -3.043749 0.000000 -0.000002 0.000000 6.034779 -0.275339 -0.033968 12.069951 -0.647012 0.003708 0.000000 0.000000 0.000000 12.069942 -0.647011 0.003702 4.521435 -27.652198 -2.326643 0.000000 0.000000 0.000000 12.069942 -0.647011 0.003702 0.756128 -4.664577 -6.306323 -6.104443 12.854886 -61.074855 -2.488541 -57.874863 -5.355669 0.000000 0.000000 0.000000 12.069942 -0.647011 0.003702 2.018775 7.202335 7.250131 6.408686 -23.946227 68.399864 -6.276776 62.142413 6.935089 0.000000 0.000000 0.000000 
-1.229512 77.312775 0.140001 0.000000 0.000000 0.000000 -6.134681 -50.120181 -3.159777 -24.441005 6.322328 13.713721 33.622340 -7.106452 1.543688 -6.329685 0.868514 -11.458950 0.000000 0.000000 0.000000 -6.134681 -50.120181 -3.159777 -5.992249 -13.901557 -16.859543 33.326405 20.843038 -5.780487 -26.434488 -1.451118 5.902333 0.000000 0.000000 0.000000 -6.134681 -50.120181 -3.159777 0.000000 -0.000002 0.000000 6.063992 -0.515578 -0.008365 12.129429 -1.118517 0.088670 0.000000 0.000000 0.000000 12.129430 -1.118531 0.088672 4.097781 -27.486793 -2.682834 0.000000 0.000000 0.000000 12.129430 -1.118531 0.088672 0.680398 -5.223120 -6.405292 -5.606940 13.591786 -61.004777 -2.951095 -58.492073 -5.571337 0.000000 0.000000 0.000000 12.129430 -1.118531 0.088672 2.096431 6.732502 7.083140 6.919925 -24.109970 68.744242 -6.249770 62.398320 6.854574 0.000000 0.000000 0.000000 
-1.246265 77.364014 0.146070 0.000000 0.000000 0.000000 -6.252476 -51.998503 -3.244678 -23.828672 6.691526 14.061286 33.374411 -5.743987 1.400247 -6.462453 0.921900 -11.786314 0.000000 0.000000 0.000000 -6.252476 -51.998503 -3.244678 -6.992790 -13.651139 -17.037478 33.787071 21.123432 -6.137386 -26.048945 -1.436825 6.163280 0.000000 0.000000 0.000000 -6.252476 -51.998503 -3.244678 0.000000 0.000003 0.000000 6.091769 -0.720274 0.006183 12.186375 -1.519538 0.151752 0.000000 0.000000 0.000000 12.186366 -1.519524 0.151750 3.619356 -27.377413 -3.054676 0.000000 0.000000 0.000000 12.186366 -1.519524 0.151750 0.609886 -5.769352 -6.627885 -5.209722 14.141701 -60.553384 -3.229520 -59.098444 -5.831517 0.000000 0.000000 0.000000 12.186366 -1.519524 0.151750 2.189348 6.080268 7.002082 7.350660 -24.329270 69.036765 -6.333465 62.720801 6.818487 0.000000 0.000000 0.000000 
-1.266361 77.417969 0.155581 0.000000 0.000000 0.000000 -6.434328 -53.876324 -3.390531 -23.182027 7.054539 14.374300 33.158700 -4.351826 1.268469 -6.613442 0.970932 -12.070938 0.000000 0.000000 0.000000 -6.434328 -53.876324 -3.390531 -7.927322 -13.385110 -17.147849 34.212793 21.348545 -6.511391 -25.649584 -1.419250 6.414708 0.000000 0.000000 0.000000 -6.434328 -53.876324 -3.390531 0.000000 -0.000002 0.000000 6.115893 -0.929024 0.010579 12.236339 -1.929285 0.195222 0.000000 0.000000 0.000000 12.236339 -1.929292 0.195221 3.276575 -27.275167 -3.245345 0.000000 0.000000 0.000000 12.236339 -1.929292 0.195221 0.531305 -6.264064 -6.402715 -4.795693 14.743351 -60.737375 -3.860295 -59.339932 -6.069102 0.000000 0.000000 0.000000 12.236339 -1.929292 0.195221 2.274328 5.224270 7.362093 7.458078 -24.432143 68.517767 -6.275232 63.212663 7.014540 0.000000 0.000000 0.000000 
-1.293521 77.466553 0.165173 0.000000 0.000000 0.000000 -6.711567 -55.618282 -3.615018 -22.516212 7.429879 14.658660 32.949232 -3.089190 1.143032 -6.745952 1.017487 -12.339879 0.000000 0.000000 0.000000 -6.711567 -55.618282 -3.615018 -8.713680 -13.095618 -17.173920 34.601930 21.377836 -6.893361 -25.261330 -1.428721 6.721000 0.000000 0.000000 0.000000 -6.711567 -55.618282 -3.615018 0.000000 -0.000003 0.000000 6.138109 -1.077511 -0.006174 12.281989 -2.221001 0.190897 0.000000 0.000000 0.000000 12.281989 -2.221005 0.190898 2.942537 -27.208351 -3.491190 0.000000 0.000000 0.000000 12.281989 -2.221005 0.190898 0.455149 -6.804713 -6.446782 -4.616949 15.236795 -60.371919 -4.059060 -59.853480 -6.117032 0.000000 0.000000 0.000000 12.281989 -2.221005 0.190898 2.395601 4.239491 7.521596 7.640738 -24.425897 68.222463 -6.156862 63.262121 7.197821 0.000000 0.000000 0.000000 
